<svg xmlns="http://www.w3.org/2000/svg" width="60" height="40" viewBox="0 0 60 40" role="img" aria-label="China flag">
  <rect width="60" height="40" fill="#DE2910"/>
  <polygon fill="#FFDE00" points="9,5 10.4,8.9 14.5,9 11.2,11.5 12.4,15.4 9,13 5.6,15.4 6.8,11.5 3.5,9 7.6,8.9"/>
  <polygon fill="#FFDE00" points="18,4 18.7,6 20.8,6.1 19.1,7.4 19.7,9.4 18,8.2 16.3,9.4 16.9,7.4 15.2,6.1 17.3,6"/>
  <polygon fill="#FFDE00" points="22,8 22.7,10 24.8,10.1 23.1,11.4 23.7,13.4 22,12.2 20.3,13.4 20.9,11.4 19.2,10.1 21.3,10"/>
  <polygon fill="#FFDE00" points="22,14 22.7,16 24.8,16.1 23.1,17.4 23.7,19.4 22,18.2 20.3,19.4 20.9,17.4 19.2,16.1 21.3,16"/>
  <polygon fill="#FFDE00" points="18,18 18.7,20 20.8,20.1 19.1,21.4 19.7,23.4 18,22.2 16.3,23.4 16.9,21.4 15.2,20.1 17.3,20"/>
</svg>

